<?xml version="1.0" encoding="UTF-8"?>
<svg width="27px" height="27px" viewBox="0 0 27 27" version="1.1" xmlns="http://www.w3.org/2000/svg" xmlns:xlink="http://www.w3.org/1999/xlink">
    <title>share_linkedin copy 2</title>
    <g id="Page-1" stroke="none" stroke-width="1" fill="none" fill-rule="evenodd">
        <g id="Individual-Resource" transform="translate(-456.000000, -592.000000)">
            <g id="Group-2-Copy-2" transform="translate(362.000000, 592.000000)">
                <g id="share_linkedin-copy-2" transform="translate(94.000000, 0.000000)">
                    <circle id="Oval-Copy" fill="#B2BB1E" cx="13.5" cy="13.5" r="13.5"></circle>
                    <g id="Group-3-Copy" transform="translate(6.750000, 6.750000)" fill="#FFFFFF">
                        <path d="M13.1,12 L10.3,12 L10.3,7.9 C10.3,6.8 9.8,6 8.9,6 C8.1,6 7.7,6.5 7.5,7 C7.5,7.2 7.5,7.4 7.5,7.7 L7.5,12 L4.7,12 C4.7,12 4.7,4.7 4.7,4.1 L7.5,4.1 L7.5,5.3 C7.6,4.7 8.5,4 9.9,4 C11.7,4 13,5.1 13,7.6 L13,12 L13.1,12 Z M1.9,3 L1.9,3 C1,3 0.4,2.4 0.4,1.7 C0.4,0.9 1,0.3 1.9,0.3 C2.8,0.3 3.4,0.9 3.4,1.7 C3.4,2.4 2.8,3 1.9,3 L1.9,3 Z M0.7,12 L3.2,12 L3.2,4 L0.7,4 L0.7,12 Z" id="Fill-12"></path>
                    </g>
                </g>
            </g>
        </g>
    </g>
</svg>