<?xml version="1.0" encoding="utf-8"?>
<!-- Generator: Adobe Illustrator 25.2.3, SVG Export Plug-In . SVG Version: 6.00 Build 0)  -->
<svg version="1.1" id="Layer_1" xmlns="http://www.w3.org/2000/svg" xmlns:xlink="http://www.w3.org/1999/xlink" x="0px" y="0px"
	 viewBox="0 0 20 20" style="enable-background:new 0 0 20 20;" xml:space="preserve">
<style type="text/css">
	.st0{filter:url(#Adobe_OpacityMaskFilter);}
	.st1{fill-rule:evenodd;clip-rule:evenodd;fill:#FFFFFF;}
	.st2{mask:url(#mask-2_1_);fill-rule:evenodd;clip-rule:evenodd;fill:#7E5EBF;}
</style>
<g id="social_fb-copy" transform="translate(450.000000, 213.000074)">
	<g id="Group-3">
		<g id="Clip-2">
		</g>
		<defs>
			<filter id="Adobe_OpacityMaskFilter" filterUnits="userSpaceOnUse" x="-450" y="-213" width="20" height="20">
				<feColorMatrix  type="matrix" values="1 0 0 0 0  0 1 0 0 0  0 0 1 0 0  0 0 0 1 0"/>
			</filter>
		</defs>
		<mask maskUnits="userSpaceOnUse" x="-450" y="-213" width="20" height="20" id="mask-2_1_">
			<g class="st0">
				<polygon id="path-1_1_" class="st1" points="-450,-213 -430,-213 -430,-193 -450,-193 				"/>
			</g>
		</mask>
		<path id="Fill-1" class="st2" d="M-440-213c5.5,0,10,4.5,10,10s-4.5,10-10,10c-5.5,0-10-4.5-10-10S-445.5-213-440-213"/>
	</g>
</g>
<g>
	<path class="st1" d="M13.6,5.3c0-0.4-0.3-0.8-0.8-0.8H7.1c-0.4,0-0.8,0.3-0.8,0.8V6h7.3V5.3z"/>
	<path class="st1" d="M14.6,7H5.5C5,7,4.6,7.4,4.6,7.8v4.6c0,0.4,0.3,0.8,0.8,0.8h0.8v1.5c0.1,0.4,0.4,0.8,0.8,0.8h6.1
		c0.4,0,0.8-0.3,0.8-0.8v-1.5h0.8c0.4,0,0.8-0.3,0.8-0.8V7.8C15.4,7.4,15,7,14.6,7z M13.1,14.7H9v-0.6H7.9v0.6H7v-3.8h6.1V14.7z
		 M13.8,9.3h-1.5V8.6h1.5V9.3z"/>
	<rect x="7.9" y="12.4" class="st1" width="3.7" height="0.8"/>
</g>
</svg>
