<?xml version="1.0" encoding="utf-8"?>
<!-- Generator: Adobe Illustrator 25.2.3, SVG Export Plug-In . SVG Version: 6.00 Build 0)  -->
<svg version="1.1" id="Layer_1" xmlns="http://www.w3.org/2000/svg" xmlns:xlink="http://www.w3.org/1999/xlink" x="0px" y="0px"
	 viewBox="0 0 20 20" style="enable-background:new 0 0 20 20;" xml:space="preserve">
<style type="text/css">
	.st0{filter:url(#Adobe_OpacityMaskFilter);}
	.st1{fill-rule:evenodd;clip-rule:evenodd;fill:#FFFFFF;}
	.st2{mask:url(#mask-2_1_);fill-rule:evenodd;clip-rule:evenodd;fill:#ECEBF3;}
	.st3{fill-rule:evenodd;clip-rule:evenodd;fill:#1F1D1D;}
</style>
<g id="Page-1">
	<g id="Homepage---Featured-Event-w_x2F_image" transform="translate(-450.000000, -20.000000)">
		<g id="social_fb" transform="translate(450.000000, 20.000074)">
			<g id="Group-3">
				<g id="Clip-2">
				</g>
				<defs>
					<filter id="Adobe_OpacityMaskFilter" filterUnits="userSpaceOnUse" x="0" y="0" width="20" height="20">
						<feColorMatrix  type="matrix" values="1 0 0 0 0  0 1 0 0 0  0 0 1 0 0  0 0 0 1 0"/>
					</filter>
				</defs>
				<mask maskUnits="userSpaceOnUse" x="0" y="0" width="20" height="20" id="mask-2_1_">
					<g class="st0">
						<polygon id="path-1_1_" class="st1" points="0,0 20,0 20,20 0,20 						"/>
					</g>
				</mask>
				<path id="Fill-1" class="st2" d="M10,0c5.5,0,10,4.5,10,10s-4.5,10-10,10S0,15.5,0,10S4.5,0,10,0"/>
			</g>
		</g>
	</g>
</g>
<g>
	<path id="Path" class="st3" d="M9.2,11L4.4,7.5L4.2,7.3v6.8c0,0.2,0.2,0.4,0.4,0.4h10.9c0.2,0,0.4-0.2,0.4-0.4V7.3l-5.2,3.8
		C10.2,11.4,9.6,11.3,9.2,11z"/>
	<path id="Path_1_" class="st3" d="M4.9,6.6l4.9,3.3c0.1,0.1,0.3,0.1,0.5,0l4.9-3.3l0.6-0.4c0-0.2,0.1-0.3,0.1-0.4
		c0-0.1,0-0.1,0-0.1s0,0,0-0.1c0,0,0,0,0-0.1c0,0,0,0-0.1-0.1h-0.1h-0.1h-0.1H4.5H4.4c0,0-0.1,0-0.1,0.1H4.2c0,0,0,0-0.1,0.1
		c0,0,0,0,0,0.1c0,0,0,0,0,0.1V6c0,0.1,0.1,0.2,0.2,0.3L4.9,6.6z"/>
</g>
</svg>
