<?xml version="1.0" encoding="utf-8"?>
<!-- Generator: Adobe Illustrator 25.2.3, SVG Export Plug-In . SVG Version: 6.00 Build 0)  -->
<svg version="1.1" id="Layer_1" xmlns="http://www.w3.org/2000/svg" xmlns:xlink="http://www.w3.org/1999/xlink" x="0px" y="0px"
	 viewBox="0 0 20 20" style="enable-background:new 0 0 20 20;" xml:space="preserve">
<style type="text/css">
	.st0{filter:url(#Adobe_OpacityMaskFilter);}
	.st1{fill-rule:evenodd;clip-rule:evenodd;fill:#FFFFFF;}
	.st2{mask:url(#mask-2_1_);fill-rule:evenodd;clip-rule:evenodd;fill:#7E5EBF;}
	.st3{filter:url(#Adobe_OpacityMaskFilter_1_);}
	.st4{mask:url(#mask-2_2_);fill-rule:evenodd;clip-rule:evenodd;fill:#FFFFFF;}
</style>
<g id="Group-3">
	<g id="Clip-2">
	</g>
	<defs>
		<filter id="Adobe_OpacityMaskFilter" filterUnits="userSpaceOnUse" x="0" y="0" width="20" height="20">
			<feColorMatrix  type="matrix" values="1 0 0 0 0  0 1 0 0 0  0 0 1 0 0  0 0 0 1 0"/>
		</filter>
	</defs>
	<mask maskUnits="userSpaceOnUse" x="0" y="0" width="20" height="20" id="mask-2_1_">
		<g class="st0">
			<polygon id="path-1_1_" class="st1" points="0,0 20,0 20,20 0,20 			"/>
		</g>
	</mask>
	<path id="Fill-1" class="st2" d="M10,0c5.5,0,10,4.5,10,10s-4.5,10-10,10C4.5,20,0,15.5,0,10S4.5,0,10,0"/>
</g>
<g id="Group-8" transform="translate(7.333456, 7.333211)">
	<g id="Group-3_1_">
		<g id="Clip-2_1_">
		</g>
		<defs>
			<filter id="Adobe_OpacityMaskFilter_1_" filterUnits="userSpaceOnUse" x="-1.9" y="-1.9" width="9.2" height="9.2">
				<feColorMatrix  type="matrix" values="1 0 0 0 0  0 1 0 0 0  0 0 1 0 0  0 0 0 1 0"/>
			</filter>
		</defs>
		<mask maskUnits="userSpaceOnUse" x="-1.9" y="-1.9" width="9.2" height="9.2" id="mask-2_2_">
			<g class="st3">
				<polygon id="path-1_2_" class="st1" points="-1.9,-1.9 7.3,-1.9 7.3,7.3 -1.9,7.3 				"/>
			</g>
		</mask>
		<path id="Fill-1_1_" class="st4" d="M6.3,4.4c0,1.1-0.9,2-2,2H1c-1.1,0-2-0.9-2-2V1c0-1.1,0.9-2,2-2h3.4c1.1,0,2,0.9,2,2V4.4z
			 M4.8-1.9H0.6c-1.4,0-2.5,1.1-2.5,2.5v4.2c0,1.4,1.1,2.5,2.5,2.5h4.2c1.4,0,2.5-1.1,2.5-2.5V0.6C7.3-0.8,6.1-1.9,4.8-1.9L4.8-1.9z
			"/>
	</g>
	<path id="Fill-4_1_" class="st1" d="M5-0.2c-0.3,0-0.5,0.2-0.5,0.5c0,0.3,0.2,0.5,0.5,0.5c0.3,0,0.5-0.2,0.5-0.5
		C5.5,0.1,5.3-0.2,5-0.2"/>
	<path id="Fill-6" class="st1" d="M2.7,4.1c-0.8,0-1.4-0.6-1.4-1.4s0.6-1.4,1.4-1.4s1.4,0.6,1.4,1.4S3.4,4.1,2.7,4.1 M2.7,0.4
		c-1.3,0-2.3,1-2.3,2.3c0,1.3,1,2.3,2.3,2.3C3.9,5,5,3.9,5,2.7C5,1.4,3.9,0.4,2.7,0.4"/>
</g>
</svg>
