<?xml version="1.0" encoding="UTF-8"?>
<svg width="27px" height="27px" viewBox="0 0 27 27" version="1.1" xmlns="http://www.w3.org/2000/svg" xmlns:xlink="http://www.w3.org/1999/xlink">
    <title>share_twitter copy 2</title>
    <g id="Page-1" stroke="none" stroke-width="1" fill="none" fill-rule="evenodd">
        <g id="Individual-Resource" transform="translate(-409.000000, -592.000000)">
            <g id="Group-2-Copy-2" transform="translate(362.000000, 592.000000)">
                <g id="share_twitter-copy-2" transform="translate(47.000000, 0.000000)">
                    <circle id="Oval-Copy-2" fill="#0B5354" cx="13.5" cy="13.5" r="13.5"></circle>
                    <g id="Group-2-Copy" transform="translate(7.000000, 8.000000)" fill="#FFFFFF">
                        <path d="M14.6,1.7 C14.1,1.9 13.5,2.1 12.9,2.2 C13.5,1.8 14,1.2 14.2,0.5 C13.6,0.8 13,1.1 12.3,1.2 C11.8,0.6 11,0.2 10.1,0.2 C8.5,0.2 7.1,1.6 7.1,3.2 C7.1,3.4 7.1,3.7 7.2,3.9 C4.8,3.9 2.6,2.7 1.1,0.8 C0.8,1.3 0.7,1.8 0.7,2.3 C0.7,3.4 1.2,4.3 2,4.8 C1.5,4.8 1.1,4.6 0.7,4.4 L0.7,4.4 C0.7,5.9 1.7,7.1 3.1,7.4 C2.8,7.6 2.6,7.7 2.3,7.7 C2.1,7.7 1.9,7.7 1.7,7.6 C2.1,8.8 3.2,9.7 4.5,9.7 C3.5,10.5 2.2,11 0.8,11 C0.6,11 0.3,11 0.1,11 C1.4,11.9 3,12.4 4.6,12.4 C10.1,12.4 13,7.8 13,3.7 C13,3.6 13,3.4 13,3.3 C13.7,2.9 14.2,2.3 14.6,1.7" id="Fill-3"></path>
                    </g>
                </g>
            </g>
        </g>
    </g>
</svg>