<?xml version="1.0" encoding="UTF-8"?>
<svg width="20px" height="20px" viewBox="0 0 20 20" version="1.1" xmlns="http://www.w3.org/2000/svg" xmlns:xlink="http://www.w3.org/1999/xlink">
    <title>social_twitter copy</title>
    <defs>
        <polygon id="path-1" points="0 0 19.9996 0 19.9996 19.9998963 0 19.9998963"></polygon>
    </defs>
    <g id="Page-1" stroke="none" stroke-width="1" fill="none" fill-rule="evenodd">
        <g id="Navigation" transform="translate(-510.000000, -213.000000)">
            <g id="social_twitter-copy" transform="translate(510.000000, 213.000000)">
                <g id="Group-3">
                    <mask id="mask-2" fill="white">
                        <use xlink:href="#path-1"></use>
                    </mask>
                    <g id="Clip-2"></g>
                    <path d="M9.99965185,0 C15.5225862,0 19.9996,4.47701382 19.9996,9.99994815 C19.9996,15.5228825 15.5225862,19.9998963 9.99965185,19.9998963 C4.47745826,19.9998963 -0.00029629476,15.5228825 -0.00029629476,9.99994815 C-0.00029629476,4.47701382 4.47745826,0 9.99965185,0" id="Fill-1" fill="#7E5EBF" mask="url(#mask-2)"></path>
                </g>
                <path d="M14.5556282,7.3704803 C14.9993296,7.07418554 15.3696981,6.6297434 15.5185862,6.11122757 C15.0741441,6.33344864 14.6289612,6.55566971 14.1111861,6.6297434 C13.7408176,6.18530126 13.1474874,5.8890065 12.4815649,5.8890065 C11.2956451,5.8890065 10.2593542,6.92603816 10.2593542,8.1112172 C10.2593542,8.25936458 10.2593542,8.48158565 10.3334279,8.62973303 C8.55565934,8.62973303 6.92603816,7.74084875 5.81493281,6.33344864 C5.59271174,6.70381709 5.51863805,7.07418554 5.51863805,7.44455399 C5.51863805,8.25936458 5.8890065,8.92602779 6.48085528,9.29639624 C6.11048683,9.29639624 5.81493281,9.14824886 5.51863805,9.00010148 C5.51863805,10.1112068 6.25937495,11.0000911 7.29640661,11.2223122 C7.07418554,11.3704596 6.92603816,11.4445332 6.70381709,11.4445332 C6.55566971,11.4445332 6.40752233,11.4445332 6.25937495,11.3704596 C6.55566971,12.2593438 7.3704803,12.926007 8.33269753,12.926007 C7.59196063,13.5185966 6.6297434,13.888965 5.59271174,13.888965 L5.07419591,13.888965 C6.03715388,14.5556282 7.22159218,14.9259967 8.40751196,14.9259967 C12.4815649,14.9259967 14.6289612,11.5186069 14.6289612,8.48158565 L14.6289612,8.18529089 C15.1482177,7.88899613 15.5185862,7.44455399 15.814881,7.00011185 C15.4445125,7.14825923 14.9993296,7.29640661 14.5556282,7.3704803 Z" id="Fill-4" fill="#FFFFFF"></path>
            </g>
        </g>
    </g>
</svg>