<?xml version="1.0" encoding="UTF-8"?>
<svg width="20px" height="20px" viewBox="0 0 20 20" version="1.1" xmlns="http://www.w3.org/2000/svg" xmlns:xlink="http://www.w3.org/1999/xlink">
    <title>social_linkedin</title>
    <defs>
        <polygon id="path-1" points="0 20 20 20 20 0 0 0"></polygon>
    </defs>
    <g id="Page-1" stroke="none" stroke-width="1" fill="none" fill-rule="evenodd">
        <g id="Homepage---Featured-Event-w/image" transform="translate(-480.000000, -20.000000)">
            <g id="social_linkedin" transform="translate(480.000000, 20.000000)">
                <path d="M10,0 C15.522963,0 20,4.47703704 20,10 C20,15.522963 15.522963,20 10,20 C4.47703704,20 0,15.522963 0,10 C0,4.47703704 4.47703704,0 10,0" id="Fill-1" fill="#ECEBF3"></path>
                <mask id="mask-2" fill="white">
                    <use xlink:href="#path-1"></use>
                </mask>
                <g id="Clip-4"></g>
                <path d="M5.51851852,13.8888889 L7.37037037,13.8888889 L7.37037037,7.96296296 L5.51851852,7.96296296 L5.51851852,13.8888889 Z M6.40740741,7.22222222 L6.40740741,7.22222222 C5.74074074,7.22222222 5.2962963,6.77777778 5.2962963,6.25925926 C5.2962963,5.66666667 5.74074074,5.22222222 6.40740741,5.22222222 C7.07407407,5.22222222 7.51851852,5.66666667 7.51851852,6.25925926 C7.51851852,6.77777778 7.07407407,7.22222222 6.40740741,7.22222222 L6.40740741,7.22222222 Z M14.7037037,13.8888889 L12.6296296,13.8888889 L12.6296296,10.8518519 C12.6296296,10.037037 12.2592593,9.44444444 11.5925926,9.44444444 C11,9.44444444 10.7037037,9.81481481 10.5555556,10.1851852 L10.5555556,10.7037037 L10.5555556,13.8888889 L8.48148148,13.8888889 L8.48148148,8.03703704 L10.5555556,8.03703704 L10.5555556,8.92592593 C10.6296296,8.48148148 11.2962963,7.96296296 12.3333333,7.96296296 C13.6666667,7.96296296 14.6296296,8.77777778 14.6296296,10.6296296 L14.6296296,13.8888889 L14.7037037,13.8888889 Z" id="Fill-3" fill="#1F1D1D" mask="url(#mask-2)"></path>
            </g>
        </g>
    </g>
</svg>