<?xml version="1.0" encoding="UTF-8"?>
<svg width="20px" height="20px" viewBox="0 0 20 20" version="1.1" xmlns="http://www.w3.org/2000/svg" xmlns:xlink="http://www.w3.org/1999/xlink">
    <title>social_fb</title>
    <defs>
        <polygon id="path-1" points="0 0 19.9999259 0 19.9999259 19.9999259 0 19.9999259"></polygon>
    </defs>
    <g id="Page-1" stroke="none" stroke-width="1" fill="none" fill-rule="evenodd">
        <g id="Homepage---Featured-Event-w/image" transform="translate(-450.000000, -20.000000)">
            <g id="social_fb" transform="translate(450.000000, 20.000074)">
                <g id="Group-3">
                    <mask id="mask-2" fill="white">
                        <use xlink:href="#path-1"></use>
                    </mask>
                    <g id="Clip-2"></g>
                    <path d="M9.99992593,0 C15.5228889,0 19.9999259,4.47703704 19.9999259,10 C19.9999259,15.522963 15.5228889,20 9.99992593,20 C4.47696296,20 -7.40740743e-05,15.522963 -7.40740743e-05,10 C-7.40740743e-05,4.47703704 4.47696296,0 9.99992593,0" id="Fill-1" fill="#ECEBF3" mask="url(#mask-2)"></path>
                </g>
                <path d="M7.66666667,7.99985185 L8.85185185,7.99985185 L8.85185185,6.81466667 C8.85185185,6.29614815 8.85185185,5.48133333 9.22222222,5.03688889 C9.59259259,4.51837037 10.1851852,4.148 11.0740741,4.148 C12.5555556,4.148 13.2222222,4.37022222 13.2222222,4.37022222 L12.9259259,6.148 C12.9259259,6.148 12.4074074,5.99985185 11.962963,5.99985185 C11.4444444,5.99985185 11.0740741,6.148 11.0740741,6.59244444 L11.0740741,7.92577778 L13,7.92577778 L12.8518519,9.77762963 L11.0740741,9.77762963 L11.0740741,15.8517037 L8.85185185,15.8517037 L8.85185185,9.77762963 L7.66666667,9.77762963 L7.66666667,7.99985185 Z" id="Fill-4" fill="#1F1D1D"></path>
            </g>
        </g>
    </g>
</svg>