<?xml version="1.0" encoding="UTF-8"?>
<svg width="27px" height="27px" viewBox="0 0 27 27" version="1.1" xmlns="http://www.w3.org/2000/svg" xmlns:xlink="http://www.w3.org/1999/xlink">
    <title>share_fb copy 2</title>
    <g id="Page-1" stroke="none" stroke-width="1" fill="none" fill-rule="evenodd">
        <g id="Individual-Resource" transform="translate(-362.000000, -592.000000)">
            <g id="share_fb-copy-2" transform="translate(362.000000, 592.000000)">
                <circle id="Oval" fill="#B2BB1E" cx="13.5" cy="13.5" r="13.5"></circle>
                <g id="Group-Copy" transform="translate(9.450000, 5.400000)" fill="#FFFFFF">
                    <path d="M0.9,5.4 L2.5,5.4 L2.5,3.8 C2.5,3.1 2.5,2 3,1.4 C3.5,0.7 4.3,0.2 5.5,0.2 C7.5,0.2 8.4,0.5 8.4,0.5 L8,2.9 C8,2.9 7.3,2.7 6.7,2.7 C6,2.7 5.5,2.9 5.5,3.5 L5.5,5.3 L8.1,5.3 L7.9,7.8 L5.5,7.8 L5.5,16 L2.5,16 L2.5,7.8 L0.9,7.8 L0.9,5.4 Z" id="Fill-10"></path>
                </g>
            </g>
        </g>
    </g>
</svg>