<svg height="17" viewBox="0 0 17 17" width="17" xmlns="http://www.w3.org/2000/svg"><path d="m3.07924528 8.98113208c-1.62515723-1.62515724-1.62515723-4.27672956 0-5.9018868 1.62515724-1.62515723 4.27672956-1.62515723 5.9018868 0 1.62515722 1.62515724 1.62515722 4.27672956 0 5.9018868-1.62515724 1.62515722-4.27672956 1.62515722-5.9018868 0m13.34339622 4.53333332-2.2238994-2.2238994c-.5867673-.5867673-1.4207295-.7227673-2.1263899-.4156981l-1.1692579-1.17011318c1.8176101-2.39753459 1.6379875-5.7958239-.5534088-7.9085283-2.39496852-2.39496856-6.24402512-2.39496856-8.55345908 0-2.39496856 2.39496855-2.39496856 6.24402515 0 8.55345908 2.18797484 2.1879749 5.5854088 2.3701636 7.91708176.561107l1.16155972 1.1615597c-.3070692.7056604-.1710692 1.5396226.4156981 2.1263899l2.2238994 2.2238994c.7698113.7698113 1.9672956.7698113 2.7371069 0l.1710692-.1710692c.7698113-.7698113.7698113-1.9672956 0-2.7371069" fill="#b5b5b5" fill-rule="evenodd"/></svg>