<svg id="Layer_1" data-name="Layer 1" xmlns="http://www.w3.org/2000/svg" viewBox="0 0 445.35 133.63"><defs><style>.cls-1{fill:#9164cc;}.cls-2{fill:#f6dfa4;}.cls-3{fill:#e54360;}.cls-4{fill:#ffb259;}.cls-5{fill:#6fa088;}.cls-6{fill:#236092;}.cls-7{fill:#404041;}.cls-8{fill:#f5accc;}.cls-9{fill:#754c28;}.cls-10{fill:#8dd7f7;}.cls-11{fill:#4d4084;}</style></defs><path class="cls-1" d="M25.45,47.6h-9V63.05H0V4.89H26.61A33,33,0,0,1,40.32,7.51a20.34,20.34,0,0,1,9,7.48,20.54,20.54,0,0,1,3.15,11.42,20.23,20.23,0,0,1-3,11,19.85,19.85,0,0,1-8.43,7.35L53.62,63.05H36Zm7.81-27.5c-1.72-1.5-4.26-2.25-7.64-2.25H16.48v17h9.14c3.38,0,5.92-.73,7.64-2.2a7.78,7.78,0,0,0,2.58-6.27A7.91,7.91,0,0,0,33.26,20.1Z"/><path class="cls-2" d="M126.81,4.89h16.45V63.05H126.81Z"/><path class="cls-3" d="M210.31,4.89V63.05H196.77l-25.68-31v31H155V4.89h13.54l25.67,31v-31Z"/><path class="cls-4" d="M274.45,38.17a14.28,14.28,0,0,1,2.82,8.93,13.42,13.42,0,0,1-6.15,11.8q-6.15,4.16-17.78,4.15h-31.4V4.89h29.74q11.13,0,16.95,4.11a12.92,12.92,0,0,1,5.82,11.1,13.78,13.78,0,0,1-2,7.43,14.21,14.21,0,0,1-5.77,5.19A16.38,16.38,0,0,1,274.45,38.17Zm-36.23-21.4V28h11.3q8.31,0,8.31-5.65t-8.31-5.57Zm22.44,28.5q0-5.9-8.65-5.9H238.22v11.8H252Q260.65,51.17,260.66,45.27Z"/><path class="cls-5" d="M298.58,60.31A29.09,29.09,0,0,1,282.84,34,29.09,29.09,0,0,1,298.58,7.63a37.17,37.17,0,0,1,33.15,0A29.12,29.12,0,0,1,347.48,34a29.12,29.12,0,0,1-15.75,26.34,37.17,37.17,0,0,1-33.15,0Zm24.55-11.8a14.9,14.9,0,0,0,5.65-5.86A17.66,17.66,0,0,0,330.86,34a17.66,17.66,0,0,0-2.08-8.68,15,15,0,0,0-5.65-5.86,16.33,16.33,0,0,0-15.95,0,15,15,0,0,0-5.65,5.86A17.77,17.77,0,0,0,299.46,34a17.77,17.77,0,0,0,2.07,8.68,15,15,0,0,0,5.65,5.86,16.33,16.33,0,0,0,15.95,0Z"/><path class="cls-6" d="M445.35,4.89,426.49,63.05H408.88L397.74,27.66,386.11,63.05H368.5L349.64,4.89h16.95L378.3,42,390.6,4.89h15.12l11.71,37.47L429.65,4.89Z"/><polygon class="cls-4" points="96.38 13.77 88.39 27.55 80.45 13.77 96.38 13.77"/><polygon class="cls-6" points="96.38 13.77 88.44 0 80.45 13.77 96.38 13.77"/><polygon class="cls-1" points="104.3 27.59 96.32 41.36 88.39 27.55 104.3 27.59"/><polygon class="cls-2" points="104.3 27.59 96.38 13.77 88.39 27.55 104.3 27.59"/><polygon class="cls-7" points="112.29 41.4 104.31 55.17 96.32 41.36 112.29 41.4"/><polygon class="cls-5" points="112.29 41.4 104.3 27.59 96.32 41.36 112.29 41.4"/><polygon class="cls-1" points="120.28 55.2 112.3 68.95 104.31 55.17 120.28 55.2"/><polygon class="cls-3" points="120.28 55.2 112.29 41.4 104.31 55.17 120.28 55.2"/><polygon class="cls-8" points="88.39 27.55 80.48 41.29 72.48 27.55 88.39 27.55"/><polygon class="cls-9" points="88.39 27.55 80.45 13.77 72.48 27.55 88.39 27.55"/><polygon class="cls-10" points="80.48 41.29 72.54 55.01 64.55 41.27 80.48 41.29"/><polygon class="cls-2" points="80.48 41.29 72.48 27.55 64.55 41.27 80.48 41.29"/><polygon class="cls-5" points="72.54 55.01 64.58 68.75 56.6 54.99 72.54 55.01"/><polygon class="cls-3" points="72.54 55.01 64.55 41.27 56.6 54.99 72.54 55.01"/><path class="cls-11" d="M52.13,78.84v54.79H36.63V112.26H15.5v21.37H0V78.84H15.5V99.42H36.63V78.84Z"/><path class="cls-11" d="M130.81,121.65v12h-44V78.84h43v12H102.16v9.23H126.5v11.58H102.16v10Z"/><path class="cls-11" d="M199.62,123H176.45l-4.3,10.65H156.34l24.18-54.79h15.26l24.27,54.79H203.92Zm-4.54-11.42L188,94l-7,17.54Z"/><path class="cls-11" d="M247.91,78.84H263.4v42.5h26.15v12.29H247.91Z"/><path class="cls-11" d="M325.7,91.13H308.88V78.84H358V91.13H341.2v42.5H325.7Z"/><path class="cls-11" d="M439.35,78.84v54.79h-15.5V112.26H402.72v21.37h-15.5V78.84h15.5V99.42h21.13V78.84Z"/></svg>