<?xml version="1.0" encoding="UTF-8"?>
<svg width="59px" height="49px" viewBox="0 0 59 49" version="1.1" xmlns="http://www.w3.org/2000/svg" xmlns:xlink="http://www.w3.org/1999/xlink">
    <title>Group 2 Copy 3</title>
    <g id="Page-1" stroke="none" stroke-width="1" fill="none" fill-rule="evenodd">
        <g id="Individual-Resource" transform="translate(-683.000000, -54.000000)">
            <g id="Group-2-Copy-3" transform="translate(683.000000, 54.000000)">
                <rect id="Rectangle-Copy-7" fill="#0B5354" x="0" y="0" width="59" height="49" rx="6"></rect>
                <g id="Group-Copy" transform="translate(12.000000, 11.000000)" fill="#FFFFFF">
                    <g id="hamburger-menu" transform="translate(0.000000, 0.113208)">
                        <path d="M1,-7.10542736e-15 L35,-7.10542736e-15 C35.5522847,-7.20688042e-15 36,0.44771525 36,1 L36,3.51612903 C36,4.06841378 35.5522847,4.51612903 35,4.51612903 L1,4.51612903 C0.44771525,4.51612903 6.76353751e-17,4.06841378 0,3.51612903 L0,1 C-6.76353751e-17,0.44771525 0.44771525,-7.1149966e-15 1,-7.10542736e-15 Z" id="Rectangle-10"></path>
                        <path d="M1,10.7419355 L35,10.7419355 C35.5522847,10.7419355 36,11.1896507 36,11.7419355 L36,14.2580645 C36,14.8103493 35.5522847,15.2580645 35,15.2580645 L1,15.2580645 C0.44771525,15.2580645 -4.33869274e-17,14.8103493 0,14.2580645 L0,11.7419355 C-1.78657678e-16,11.1896507 0.44771525,10.7419355 1,10.7419355 Z" id="Rectangle-10-Copy"></path>
                        <rect id="Rectangle-10-Copy-2" x="0" y="21.483871" width="36" height="4.51612903" rx="1"></rect>
                    </g>
                </g>
            </g>
        </g>
    </g>
</svg>