<?xml version="1.0" encoding="UTF-8"?>
<svg width="22px" height="22px" viewBox="0 0 22 22" version="1.1" xmlns="http://www.w3.org/2000/svg" xmlns:xlink="http://www.w3.org/1999/xlink">
    <title>Shape</title>
    <g id="Page-1" stroke="none" stroke-width="1" fill="none" fill-rule="evenodd">
        <g id="Homepage---Featured-Event-w/image" transform="translate(-948.000000, -3973.000000)" fill="#FFFFFF" fill-rule="nonzero">
            <g id="Group-2" transform="translate(0.000000, 3907.000000)">
                <g id="Group-4" transform="translate(767.000000, 60.000000)">
                    <path d="M202.137293,24.4383725 L198.498384,20.7950765 C198.074448,20.3757994 197.478574,20.1793396 196.888402,20.2642652 L194.300149,17.6760116 C196.298099,14.9276299 196.152502,11.1681697 193.947975,8.58254223 C191.743448,5.99691478 188.054302,5.25871358 185.024583,6.79696409 C181.994865,8.3352146 180.413859,11.7491802 181.200411,15.0547432 C181.986962,18.3603061 184.936163,20.6963192 188.334005,20.7051457 L188.334005,20.7051457 C189.88966,20.7082946 191.405737,20.214974 192.661653,19.2969603 L195.25868,21.8917942 C195.173605,22.4830441 195.370948,23.0799466 195.791685,23.5039691 L199.434981,27.1406847 C200.181203,27.8869077 201.39107,27.8869077 202.137293,27.1406847 C202.883516,26.3944618 202.883516,25.1845954 202.137293,24.4383725 Z M188.334005,18.0291725 C186.100924,18.0291725 184.178864,16.4515905 183.743277,14.2614048 C183.307689,12.071219 184.47989,9.87833483 186.543011,9.0238281 C188.606132,8.16932138 190.985568,8.89118309 192.226155,10.7479529 C193.466742,12.6047228 193.222961,15.0792667 191.643899,16.6582576 C190.767977,17.5389475 189.576117,18.032594 188.334005,18.0291725 L188.334005,18.0291725 Z" id="Shape"></path>
                </g>
            </g>
        </g>
    </g>
</svg>